<svg width="1280" height="480" viewBox="0 0 1280 480" xmlns="http://www.w3.org/2000/svg">
    <defs>
        <linearGradient id="pm" x1="0" y1="0" x2="0" y2="1">
            <stop offset="0%" stop-color="#e0f2fe"/>
            <stop offset="100%" stop-color="#bae6fd"/>
        </linearGradient>
        <linearGradient id="ps" x1="0" y1="0" x2="0" y2="1">
            <stop offset="0%" stop-color="#bae6fd"/>
            <stop offset="100%" stop-color="#0078d4"/>
        </linearGradient>
        <linearGradient id="wm" x1="0" y1="0" x2="0" y2="1">
            <stop offset="0%" stop-color="#f0f9ff"/>
            <stop offset="55%" stop-color="#bae6fd"/>
            <stop offset="100%" stop-color="#0078d4"/>
        </linearGradient>
    </defs>

    <!-- Decorative rings -->
    <circle cx="640" cy="225" r="290" fill="none" stroke="#0078d4" stroke-width="1" opacity="0.12"/>
    <circle cx="640" cy="225" r="360" fill="none" stroke="#0078d4" stroke-width="1" opacity="0.07"/>

    <!-- Cloud centered at (640, 215) -->
    <g transform="translate(640,215) scale(1.9)">
        <rect x="-108" y="-20" width="216" height="60" rx="30" fill="url(#ps)"/>
        <circle cx="-74" cy="-20" r="40" fill="url(#ps)"/>
        <circle cx="-22" cy="-44" r="52" fill="url(#pm)"/>
        <circle cx="36" cy="-36" r="46" fill="url(#pm)"/>
        <circle cx="86" cy="-18" r="34" fill="url(#ps)"/>
        <ellipse cx="8" cy="-30" rx="72" ry="28" fill="#f0f9ff" opacity="0.55"/>
        <circle cx="-58" cy="-34" r="7" fill="#f0f9ff" opacity="0.75"/>
        <circle cx="-12" cy="-60" r="8.5" fill="#f0f9ff" opacity="0.70"/>
        <circle cx="38" cy="-54" r="7.5" fill="#f0f9ff" opacity="0.70"/>
        <circle cx="82" cy="-28" r="6" fill="#f0f9ff" opacity="0.65"/>
        <ellipse cx="4" cy="42" rx="90" ry="9" fill="#000" opacity="0.12"/>
    </g>

    <!-- Wordmark -->
    <text x="640" y="402"
          font-family="'Segoe UI', Helvetica, Arial, sans-serif"
          font-size="118" font-weight="800" fill="url(#wm)"
          text-anchor="middle" letter-spacing="-3">floci-az
    </text>
</svg>